<svg width="137" height="127" viewBox="0 0 137 127" fill="none" xmlns="http://www.w3.org/2000/svg">
<path d="M77.3763 32.5977H82.7264L86.6565 38.272L86.6581 38.2744L86.6596 38.2765L90.4309 43.85L90.4342 43.8549L103.616 62.8524H98.3764L91.1616 51.8953L90.7451 51.2629L90.3271 51.8943L83.0719 62.8524H77.7237L87.9116 48.2328L88.1111 47.9464L87.9111 47.6604L77.3763 32.5977ZM13.0315 32.792H26.2903C27.6495 32.792 28.8927 33.0777 30.0329 33.6422C31.1894 34.2148 32.1831 34.9709 33.0145 35.9027L33.0146 35.9027C33.8525 36.8413 34.5062 37.9048 34.9818 39.0992C35.4565 40.2914 35.6913 41.4848 35.6913 42.6793C35.6913 44.6164 35.2092 46.3677 34.2512 47.9423L34.2509 47.9426C33.2955 49.5157 32.0093 50.6388 30.3852 51.3303L29.8553 51.5558L30.153 52.0488L36.7924 63.0438H31.1686L24.9622 52.8074L24.8163 52.5666H24.5347H18.5779H18.0779V53.0666V63.0438H13.0315V32.792ZM18.0779 47.7439V48.2439H18.5779H26.1574C26.7957 48.2439 27.398 48.0894 27.9539 47.7851C28.4998 47.4862 28.9675 47.0801 29.3595 46.5734L29.3607 46.5718C29.7479 46.0672 30.0497 45.4825 30.2702 44.8179C30.4937 44.1472 30.6017 43.4321 30.6017 42.6793C30.6017 41.891 30.4744 41.155 30.2204 40.4788L30.2196 40.4769C29.9669 39.8124 29.6236 39.2244 29.1897 38.7211L29.1885 38.7198C28.7512 38.2164 28.2452 37.8232 27.6742 37.543L27.6732 37.5425C27.0993 37.2624 26.505 37.1176 25.8976 37.1176H18.5779H18.0779V37.6176V47.7439ZM42.1717 32.792H47.218V58.2182V58.7182H47.718H63.0817V63.0438H42.1717V32.792ZM0.5 63.0467V32.792H5.54633V63.0467H0.5ZM67.7603 63.0467V32.792H72.8066V63.0467H67.7603ZM94.657 38.7284L98.7247 32.5977H104.025L97.185 42.3783L94.657 38.7284Z" fill="white" stroke="black"/>
<path d="M55.1329 88.3097C53.8528 88.3097 52.7379 88.0206 51.7881 87.4425C50.8383 86.8644 50.095 86.1005 49.5582 85.1507V94.5968H45.4082V71.7714H49.0317V74.5587C49.6305 73.609 50.4048 72.8657 51.3545 72.3288C52.3249 71.7714 53.4192 71.4926 54.6374 71.4926C56.1034 71.4926 57.4041 71.8746 58.5397 72.6385C59.6753 73.3818 60.5735 74.3936 61.2342 75.6737C61.8949 76.9331 62.2252 78.3268 62.2252 79.8547C62.2252 81.4445 61.9155 82.8795 61.2961 84.1596C60.6973 85.4191 59.8611 86.4308 58.7875 87.1948C57.7345 87.9381 56.5163 88.3097 55.1329 88.3097ZM53.7393 84.7791C54.5858 84.7791 55.3188 84.5519 55.9382 84.0977C56.5782 83.6228 57.0738 83.0137 57.4248 82.2704C57.7964 81.5065 57.9822 80.7012 57.9822 79.8547C57.9822 78.9462 57.7861 78.1307 57.3938 77.408C57.0015 76.6647 56.4647 76.0866 55.7833 75.6737C55.1226 75.2401 54.3587 75.0233 53.4915 75.0233C52.7069 75.0233 51.9223 75.2814 51.1377 75.7976C50.3531 76.3137 49.8266 76.9641 49.5582 77.7487V81.5581C49.9299 82.4666 50.4977 83.2305 51.2616 83.8499C52.0256 84.4693 52.8514 84.7791 53.7393 84.7791ZM64.8822 81.9297V71.7714H69.0322V81.0316C69.0322 83.5299 69.9304 84.7791 71.7267 84.7791C72.5319 84.7791 73.3062 84.5416 74.0495 84.0667C74.8134 83.5712 75.4328 82.8279 75.9077 81.8368V71.7714H80.0578V83.3544C80.0578 83.8086 80.1301 84.1287 80.2746 84.3145C80.4191 84.4797 80.6772 84.5829 81.0489 84.6242V88C80.6359 88.0826 80.2849 88.1342 79.9959 88.1549C79.7274 88.1755 79.4797 88.1858 79.2526 88.1858C78.5093 88.1858 77.9002 88.0206 77.4253 87.6903C76.9711 87.3393 76.7026 86.8644 76.6201 86.2656L76.5271 84.9649C75.8045 86.0798 74.8754 86.916 73.7398 87.4735C72.6042 88.031 71.355 88.3097 69.9923 88.3097C68.3199 88.3097 67.0501 87.7729 66.1829 86.6992C65.3158 85.6049 64.8822 84.0151 64.8822 81.9297ZM93.4112 88.3097C92.1724 88.3097 91.0678 88.031 90.0974 87.4735C89.127 86.916 88.363 86.1521 87.8055 85.1817V88H84.182V65.3914H88.332V74.6207C88.9102 73.6503 89.6638 72.8863 90.5929 72.3288C91.5427 71.7714 92.6473 71.4926 93.9068 71.4926C95.3108 71.4926 96.5393 71.8849 97.5923 72.6695C98.6659 73.4335 99.5021 74.4555 100.101 75.7356C100.7 77.0157 100.999 78.4197 100.999 79.9476C100.999 81.5168 100.669 82.9311 100.008 84.1906C99.3473 85.4501 98.4388 86.4515 97.2826 87.1948C96.147 87.9381 94.8565 88.3097 93.4112 88.3097ZM92.2653 84.7791C93.1531 84.7791 93.9274 84.5623 94.5881 84.1287C95.2695 83.6951 95.796 83.117 96.1676 82.3943C96.5599 81.651 96.7561 80.8458 96.7561 79.9786C96.7561 79.0908 96.5702 78.2752 96.1986 77.5319C95.8476 76.768 95.3521 76.1589 94.712 75.7046C94.0719 75.2504 93.339 75.0233 92.5131 75.0233C91.6046 75.0233 90.7684 75.333 90.0045 75.9524C89.2612 76.5512 88.7037 77.2945 88.332 78.1823V82.0536C88.6005 82.8589 89.127 83.5196 89.9115 84.0358C90.6961 84.5313 91.4807 84.7791 92.2653 84.7791Z" fill="white"/>
<path d="M51.7881 87.4425L51.2682 88.2967L51.7881 87.4425ZM49.5582 85.1507L50.4288 84.6586L48.5582 81.3492V85.1507H49.5582ZM49.5582 94.5968V95.5968H50.5582V94.5968H49.5582ZM45.4082 94.5968H44.4082V95.5968H45.4082V94.5968ZM45.4082 71.7714V70.7714H44.4082V71.7714H45.4082ZM49.0317 71.7714H50.0317V70.7714H49.0317V71.7714ZM49.0317 74.5587H48.0317V78.0201L49.8776 75.092L49.0317 74.5587ZM51.3545 72.3288L51.8466 73.1994L51.8526 73.1959L51.3545 72.3288ZM58.5397 72.6385L57.9815 73.4683L57.9921 73.4753L58.5397 72.6385ZM61.2342 75.6737L60.3455 76.1323L60.3486 76.1382L61.2342 75.6737ZM61.2961 84.1596L60.3959 83.7241L60.393 83.7303L61.2961 84.1596ZM58.7875 87.1948L59.3642 88.0117L59.3672 88.0096L58.7875 87.1948ZM55.9382 84.0977L56.5296 84.9041L56.534 84.9008L55.9382 84.0977ZM57.4248 82.2704L56.5255 81.8329L56.5205 81.8434L57.4248 82.2704ZM57.3938 77.408L56.5094 77.8748L56.5149 77.8851L57.3938 77.408ZM55.7833 75.6737L55.2347 76.5097L55.2497 76.5196L55.265 76.5289L55.7833 75.6737ZM49.5582 77.7487L48.6121 77.425L48.5582 77.5824V77.7487H49.5582ZM49.5582 81.5581H48.5582V81.7547L48.6327 81.9367L49.5582 81.5581ZM51.2616 83.8499L50.6318 84.6267L50.6318 84.6267L51.2616 83.8499ZM55.1329 87.3097C54.008 87.3097 53.0787 87.0574 52.3081 86.5883L51.2682 88.2967C52.3971 88.9839 53.6977 89.3097 55.1329 89.3097V87.3097ZM52.3081 86.5883C51.5012 86.0972 50.8799 85.4568 50.4288 84.6586L48.6877 85.6428C49.3102 86.7441 50.1754 87.6316 51.2682 88.2967L52.3081 86.5883ZM48.5582 85.1507V94.5968H50.5582V85.1507H48.5582ZM49.5582 93.5968H45.4082V95.5968H49.5582V93.5968ZM46.4082 94.5968V71.7714H44.4082V94.5968H46.4082ZM45.4082 72.7714H49.0317V70.7714H45.4082V72.7714ZM48.0317 71.7714V74.5587H50.0317V71.7714H48.0317ZM49.8776 75.092C50.3908 74.278 51.0452 73.6524 51.8466 73.1994L50.8625 71.4583C49.7644 72.0789 48.8701 72.9399 48.1858 74.0254L49.8776 75.092ZM51.8526 73.1959C52.6582 72.7332 53.5781 72.4926 54.6374 72.4926V70.4926C53.2604 70.4926 51.9916 70.8096 50.8564 71.4617L51.8526 73.1959ZM54.6374 72.4926C55.9194 72.4926 57.0228 72.8233 57.9815 73.4683L59.0979 71.8088C57.7854 70.9259 56.2874 70.4926 54.6374 70.4926V72.4926ZM57.9921 73.4753C58.9744 74.1182 59.7589 74.9958 60.3455 76.1323L62.1228 75.215C61.388 73.7913 60.3762 72.6455 59.0874 71.8018L57.9921 73.4753ZM60.3486 76.1382C60.9286 77.2439 61.2252 78.4763 61.2252 79.8547H63.2252C63.2252 78.1773 62.8611 76.6224 62.1197 75.2091L60.3486 76.1382ZM61.2252 79.8547C61.2252 81.3116 60.9423 82.595 60.3959 83.7241L62.1963 84.5952C62.8888 83.164 63.2252 81.5775 63.2252 79.8547H61.2252ZM60.393 83.7303C59.863 84.8451 59.1343 85.7206 58.2077 86.38L59.3672 88.0096C60.5879 87.141 61.5317 85.9931 62.1992 84.589L60.393 83.7303ZM58.2108 86.3778C57.3391 86.9931 56.3258 87.3097 55.1329 87.3097V89.3097C56.7068 89.3097 58.1299 88.883 59.3642 88.0117L58.2108 86.3778ZM53.7393 85.7791C54.7756 85.7791 55.7211 85.497 56.5295 84.9041L55.3468 83.2913C54.9165 83.6069 54.3959 83.7791 53.7393 83.7791V85.7791ZM56.534 84.9008C57.3105 84.3247 57.91 83.5847 58.329 82.6974L56.5205 81.8434C56.2375 82.4427 55.846 82.9209 55.3423 83.2946L56.534 84.9008ZM58.324 82.7079C58.7617 81.8082 58.9822 80.8534 58.9822 79.8547H56.9822C56.9822 80.5491 56.8311 81.2048 56.5255 81.833L58.324 82.7079ZM58.9822 79.8547C58.9822 78.7974 58.7525 77.815 58.2727 76.9309L56.5149 77.8851C56.8196 78.4464 56.9822 79.0951 56.9822 79.8547H58.9822ZM58.2782 76.9413C57.8062 76.0469 57.1466 75.3306 56.3016 74.8185L55.265 76.5289C55.7828 76.8427 56.1969 77.2826 56.5094 77.8748L58.2782 76.9413ZM56.332 74.8376C55.4925 74.2867 54.5339 74.0233 53.4915 74.0233V76.0233C54.1835 76.0233 54.7527 76.1934 55.2347 76.5097L56.332 74.8376ZM53.4915 74.0233C52.4759 74.0233 51.5033 74.36 50.5881 74.9621L51.6873 76.633C52.3413 76.2027 52.9379 76.0233 53.4915 76.0233V74.0233ZM50.5881 74.9621C49.6441 75.5832 48.9617 76.4031 48.6121 77.425L50.5044 78.0724C50.6916 77.5251 51.0622 77.0442 51.6873 76.633L50.5881 74.9621ZM48.5582 77.7487V81.5581H50.5582V77.7487H48.5582ZM48.6327 81.9367C49.068 83.001 49.7377 83.9017 50.6318 84.6267L51.8914 83.0732C51.2576 82.5593 50.7917 81.9322 50.4838 81.1795L48.6327 81.9367ZM50.6318 84.6267C51.5535 85.374 52.5971 85.7791 53.7393 85.7791V83.7791C53.1057 83.7791 52.4976 83.5647 51.8914 83.0732L50.6318 84.6267ZM64.8822 71.7714V70.7714H63.8822V71.7714H64.8822ZM69.0322 71.7714H70.0322V70.7714H69.0322V71.7714ZM74.0495 84.0667L74.5879 84.9094L74.5937 84.9057L74.0495 84.0667ZM75.9077 81.8368L76.8095 82.269L76.9077 82.0641V81.8368H75.9077ZM75.9077 71.7714V70.7714H74.9077V71.7714H75.9077ZM80.0578 71.7714H81.0578V70.7714H80.0578V71.7714ZM80.2746 84.3145L79.4852 84.9284L79.503 84.9512L79.522 84.973L80.2746 84.3145ZM81.0489 84.6242H82.0489V83.7292L81.1593 83.6303L81.0489 84.6242ZM81.0489 88L81.245 88.9806L82.0489 88.8198V88H81.0489ZM79.9959 88.1549L79.9246 87.1574L79.9192 87.1578L79.9959 88.1549ZM77.4253 87.6903L76.8138 88.4816L76.8337 88.4969L76.8542 88.5112L77.4253 87.6903ZM76.6201 86.2656L75.6226 86.3369L75.6249 86.3697L75.6294 86.4023L76.6201 86.2656ZM76.5271 84.9649L77.5246 84.8936L77.3119 81.9155L75.688 84.421L76.5271 84.9649ZM73.7398 87.4735L74.1805 88.3712L73.7398 87.4735ZM66.1829 86.6992L65.3992 87.3203L65.405 87.3276L66.1829 86.6992ZM65.8822 81.9297V71.7714H63.8822V81.9297H65.8822ZM64.8822 72.7714H69.0322V70.7714H64.8822V72.7714ZM68.0322 71.7714V81.0316H70.0322V71.7714H68.0322ZM68.0322 81.0316C68.0322 82.3705 68.2675 83.5547 68.8939 84.426C69.5642 85.3582 70.5683 85.7791 71.7267 85.7791V83.7791C71.0888 83.7791 70.7457 83.5754 70.5178 83.2584C70.246 82.8805 70.0322 82.191 70.0322 81.0316H68.0322ZM71.7267 85.7791C72.7408 85.7791 73.6997 85.4769 74.5879 84.9094L73.5111 83.224C72.9127 83.6064 72.3231 83.7791 71.7267 83.7791V85.7791ZM74.5937 84.9057C75.5412 84.2911 76.2717 83.3915 76.8095 82.269L75.0059 81.4047C74.594 82.2643 74.0857 82.8513 73.5053 83.2278L74.5937 84.9057ZM76.9077 81.8368V71.7714H74.9077V81.8368H76.9077ZM75.9077 72.7714H80.0578V70.7714H75.9077V72.7714ZM79.0578 71.7714V83.3544H81.0578V71.7714H79.0578ZM79.0578 83.3544C79.0578 83.8543 79.1253 84.4657 79.4852 84.9284L81.0639 83.7005C81.1101 83.7599 81.1031 83.7844 81.0874 83.7148C81.0725 83.6487 81.0578 83.5335 81.0578 83.3544H79.0578ZM79.522 84.973C79.9136 85.4206 80.48 85.5671 80.9384 85.6181L81.1593 83.6303C81.0343 83.6164 80.9702 83.5962 80.9479 83.5873C80.9274 83.5791 80.9715 83.5923 81.0272 83.656L79.522 84.973ZM80.0489 84.6242V88H82.0489V84.6242H80.0489ZM80.8527 87.0194C80.4643 87.0971 80.1576 87.1408 79.9246 87.1574L80.0671 89.1523C80.4122 89.1277 80.8075 89.0681 81.245 88.9806L80.8527 87.0194ZM79.9192 87.1578C79.6717 87.1768 79.4499 87.1858 79.2526 87.1858V89.1858C79.5094 89.1858 79.7831 89.1742 80.0726 89.1519L79.9192 87.1578ZM79.2526 87.1858C78.6554 87.1858 78.2616 87.0539 77.9964 86.8694L76.8542 88.5112C77.5387 88.9874 78.3631 89.1858 79.2526 89.1858V87.1858ZM78.0367 86.899C77.8016 86.7173 77.6596 86.4835 77.6107 86.129L75.6294 86.4023C75.7457 87.2453 76.1405 87.9613 76.8138 88.4816L78.0367 86.899ZM77.6175 86.1944L77.5246 84.8936L75.5297 85.0361L75.6226 86.3369L77.6175 86.1944ZM75.688 84.421C75.0586 85.3921 74.264 86.1022 73.2991 86.5758L74.1805 88.3712C75.4867 87.7299 76.5504 86.7675 77.3663 85.5088L75.688 84.421ZM73.2991 86.5758C72.3111 87.0609 71.2143 87.3097 69.9923 87.3097V89.3097C71.4958 89.3097 72.8973 89.0011 74.1805 88.3712L73.2991 86.5758ZM69.9923 87.3097C68.5513 87.3097 67.5978 86.8595 66.9609 86.0709L65.405 87.3276C66.5024 88.6863 68.0885 89.3097 69.9923 89.3097V87.3097ZM66.9667 86.0782C66.2939 85.2291 65.8822 83.8963 65.8822 81.9297H63.8822C63.8822 84.1339 64.3376 85.9807 65.3992 87.3203L66.9667 86.0782ZM90.0974 87.4735L89.5992 88.3406L89.5992 88.3406L90.0974 87.4735ZM87.8055 85.1817L88.6726 84.6835L86.8055 81.4334V85.1817H87.8055ZM87.8055 88V89H88.8055V88H87.8055ZM84.182 88H83.182V89H84.182V88ZM84.182 65.3914V64.3914H83.182V65.3914H84.182ZM88.332 65.3914H89.332V64.3914H88.332V65.3914ZM88.332 74.6207H87.332V78.2531L89.1911 75.1325L88.332 74.6207ZM90.5929 72.3288L90.0867 71.4664L90.0784 71.4713L90.5929 72.3288ZM97.5923 72.6695L96.9948 73.4714L97.0036 73.478L97.0125 73.4843L97.5923 72.6695ZM100.101 75.7356L101.007 75.3119L101.007 75.3119L100.101 75.7356ZM100.008 84.1906L100.894 84.6552L100.894 84.6552L100.008 84.1906ZM97.2826 87.1948L96.7418 86.3536L96.7349 86.3581L97.2826 87.1948ZM94.5881 84.1287L94.0512 83.2849L94.0395 83.2926L94.5881 84.1287ZM96.1676 82.3943L95.2832 81.9275L95.2783 81.937L96.1676 82.3943ZM96.1986 77.5319L95.2899 77.9494L95.2968 77.9644L95.3042 77.9791L96.1986 77.5319ZM94.712 75.7046L94.1333 76.5202L94.1333 76.5202L94.712 75.7046ZM90.0045 75.9524L90.6318 76.7312L90.6343 76.7292L90.0045 75.9524ZM88.332 78.1823L87.4096 77.7962L87.332 77.9814V78.1823H88.332ZM88.332 82.0536H87.332V82.2159L87.3834 82.3699L88.332 82.0536ZM89.9115 84.0358L89.3619 84.8712L89.3697 84.8763L89.3776 84.8812L89.9115 84.0358ZM93.4112 87.3097C92.328 87.3097 91.3985 87.0677 90.5955 86.6064L89.5992 88.3406C90.737 88.9942 92.0168 89.3097 93.4112 89.3097V87.3097ZM90.5955 86.6064C89.7786 86.1371 89.1419 85.5005 88.6726 84.6835L86.9384 85.6798C87.5841 86.8037 88.4754 87.695 89.5992 88.3406L90.5955 86.6064ZM86.8055 85.1817V88H88.8055V85.1817H86.8055ZM87.8055 87H84.182V89H87.8055V87ZM85.182 88V65.3914H83.182V88H85.182ZM84.182 66.3914H88.332V64.3914H84.182V66.3914ZM87.332 65.3914V74.6207H89.332V65.3914H87.332ZM89.1911 75.1325C89.6884 74.2977 90.326 73.6551 91.1074 73.1863L90.0784 71.4713C89.0015 72.1175 88.1319 73.0028 87.4729 74.1089L89.1911 75.1325ZM91.0991 73.1913C91.8744 72.7362 92.7993 72.4926 93.9068 72.4926V70.4926C92.4953 70.4926 91.2109 70.8066 90.0867 71.4664L91.0991 73.1913ZM93.9068 72.4926C95.1113 72.4926 96.1267 72.8246 96.9948 73.4714L98.1898 71.8676C96.9518 70.9453 95.5102 70.4926 93.9068 70.4926V72.4926ZM97.0125 73.4843C97.9354 74.141 98.664 75.0238 99.1951 76.1593L101.007 75.3119C100.34 73.8872 99.3965 72.726 98.172 71.8547L97.0125 73.4843ZM99.1951 76.1593C99.7269 77.2963 99.999 78.5541 99.999 79.9476H101.999C101.999 78.2854 101.672 76.7352 101.007 75.3119L99.1951 76.1593ZM99.999 79.9476C99.999 81.372 99.7004 82.6242 99.1224 83.7261L100.894 84.6552C101.637 83.238 101.999 81.6616 101.999 79.9476H99.999ZM99.1224 83.7261C98.5392 84.8378 97.7473 85.7072 96.7418 86.3536L97.8233 88.0359C99.1303 87.1957 100.155 86.0623 100.894 84.6552L99.1224 83.7261ZM96.7349 86.3581C95.7728 86.9878 94.6752 87.3097 93.4112 87.3097V89.3097C95.0378 89.3097 96.5211 88.8883 97.8302 88.0315L96.7349 86.3581ZM92.2653 85.7791C93.3232 85.7791 94.2935 85.5181 95.1368 84.9647L94.0395 83.2926C93.5614 83.6064 92.9831 83.7791 92.2653 83.7791V85.7791ZM95.125 84.9723C95.957 84.4429 96.6047 83.731 97.0569 82.8517L95.2783 81.937C94.9873 82.5029 94.582 82.9473 94.0512 83.285L95.125 84.9723ZM97.052 82.8611C97.5227 81.9692 97.7561 81.0031 97.7561 79.9786H95.7561C95.7561 80.6885 95.5971 81.3328 95.2832 81.9276L97.052 82.8611ZM97.7561 79.9786C97.7561 78.9464 97.5388 77.9763 97.093 77.0847L95.3042 77.9791C95.6017 78.5742 95.7561 79.2352 95.7561 79.9786H97.7561ZM97.1073 77.1144C96.6885 76.2029 96.0839 75.452 95.2907 74.8891L94.1333 76.5202C94.6202 76.8657 95.0067 77.333 95.2899 77.9494L97.1073 77.1144ZM95.2907 74.8891C94.4724 74.3084 93.5348 74.0233 92.5131 74.0233V76.0233C93.1431 76.0233 93.6715 76.1924 94.1333 76.5202L95.2907 74.8891ZM92.5131 74.0233C91.3558 74.0233 90.301 74.4246 89.3747 75.1757L90.6343 76.7292C91.2358 76.2414 91.8534 76.0233 92.5131 76.0233V74.0233ZM89.3771 75.1737C88.5032 75.8776 87.8449 76.7563 87.4096 77.7962L89.2545 78.5684C89.5625 77.8326 90.0191 77.2247 90.6318 76.7312L89.3771 75.1737ZM87.332 78.1823V82.0536H89.332V78.1823H87.332ZM87.3834 82.3699C87.7304 83.4109 88.411 84.2455 89.3619 84.8712L90.4612 83.2003C89.8429 82.7936 89.4705 82.3068 89.2807 81.7374L87.3834 82.3699ZM89.3776 84.8812C90.2923 85.459 91.2595 85.7791 92.2653 85.7791V83.7791C91.702 83.7791 91.0999 83.6036 90.4455 83.1903L89.3776 84.8812Z" fill="black"/>
<rect x="29.369" y="-45.3047" width="203.882" height="4.81978" transform="rotate(55.4712 29.369 -45.3047)" fill="white" stroke="black"/>
</svg>
